<?xml version="1.0" standalone="no"?>
<!DOCTYPE svg PUBLIC "-//W3C//DTD SVG 20010904//EN"
 "http://www.w3.org/TR/2001/REC-SVG-20010904/DTD/svg10.dtd">
<svg version="1.0" xmlns="http://www.w3.org/2000/svg"
 width="1024.000000pt" height="1024.000000pt" viewBox="0 0 1024.000000 1024.000000"
 preserveAspectRatio="xMidYMid meet">

<g transform="translate(0.000000,1024.000000) scale(0.100000,-0.100000)"
fill="#000000" stroke="none">
<path d="M4770 10204 c-711 -61 -1304 -220 -1887 -508 -222 -109 -356 -185
-538 -304 -968 -629 -1698 -1575 -2060 -2667 -110 -333 -187 -683 -232 -1060
-26 -216 -25 -874 0 -1090 143 -1196 639 -2230 1466 -3055 833 -831 1860
-1324 3056 -1467 216 -26 874 -26 1090 0 854 102 1593 372 2285 833 458 305
889 709 1219 1144 528 695 866 1496 991 2347 68 467 68 1038 -1 1493 -144 955
-547 1837 -1175 2570 -128 150 -399 420 -544 544 -342 292 -676 511 -1083 712
-520 257 -1073 417 -1687 490 -128 15 -779 28 -900 18z m923 -73 c280 -34 500
-76 741 -142 1193 -324 2212 -1061 2891 -2089 489 -740 761 -1542 826 -2435
17 -230 6 -691 -21 -919 -108 -916 -442 -1745 -997 -2477 -568 -750 -1358
-1340 -2238 -1669 -402 -151 -789 -243 -1250 -297 -215 -25 -835 -25 -1050 0
-622 73 -1149 224 -1680 482 -799 387 -1495 996 -1992 1740 -446 670 -716
1408 -814 2225 -27 225 -37 689 -20 922 85 1155 540 2208 1324 3066 217 238
482 473 752 668 730 528 1588 852 2475 934 63 5 133 12 155 14 22 2 195 2 385
1 270 -3 381 -8 513 -24z"/>
</g>
</svg>
